<svg width="351" height="65" viewBox="0 0 351 65" fill="none" xmlns="http://www.w3.org/2000/svg">
<g clip-path="url(#clip0_1460_15)">
<path fill-rule="evenodd" clip-rule="evenodd" d="M27.9 60.5L41.7 36.5H32.3L36.9 28.4H58.9L54.2 36.5H46.3L32.3 60.9C48 60.8 60.8 48 60.8 32.4C60.8 16.8 48 4.1 32.4 4.1C31.3 4.1 30.1 4.2 29 4.3L15 28.4H32.3L27.6 36.5H5.8L23.7 5.5C12.3 9.1 4 19.9 4 32.4C4 46.5 14.4 58.3 27.9 60.5ZM32.4 0C50.2 0 64.9 14.6 64.9 32.4C64.9 50.3 50.3 64.9 32.4 64.9C14.6 64.9 0 50.3 0 32.4C0 14.6 14.6 0 32.4 0Z" fill="white"/>
<path fill-rule="evenodd" clip-rule="evenodd" d="M333.1 32.3992C333.9 28.5992 336.6 24.6992 341.1 24.6992C345.6 24.6992 346.6 28.5992 345.7 32.3992C344.9 36.2992 342.3 40.1992 337.7 40.1992C333.1 40.1992 332.2 36.2992 333.1 32.3992ZM328.4 32.3992C327 38.9992 329.8 43.5992 337 43.5992C344.1 43.5992 349 38.8992 350.5 32.3992C351.9 25.8992 348.9 21.2992 341.9 21.2992C334.6 21.2992 329.8 25.6992 328.4 32.3992ZM308.9 43.1992H313.4L315.3 34.1992H316.8C318.7 34.1992 319.1 34.7992 319.4 36.3992L320.6 43.0992H325.6L323.8 34.5992C323.6 33.5992 323.1 32.4992 321.9 32.3992V32.2992C324.9 31.8992 327.1 29.7992 327.6 27.2992C328.9 21.2992 323.1 21.3992 318.3 21.3992H313.4L308.9 43.1992ZM317.4 24.9992H318.9C321.2 24.9992 323.6 25.1992 323.1 27.7992C322.5 30.4992 319.9 30.7992 317.7 30.7992H316.2L317.4 24.9992ZM290.3 43.1992H298.2C301 43.1992 306.3 42.3992 307.5 36.8992C308.1 34.1992 306.4 32.2992 303.4 31.9992V31.8992C306.2 31.3992 308.4 29.5992 308.9 27.0992C309.9 22.3992 305.8 21.5992 302.8 21.5992H295L290.3 43.1992ZM298.7 24.9992H300.4C302.5 24.9992 304.7 25.1992 304.2 27.6992C303.7 29.8992 301.3 30.2992 299.4 30.2992H297.6L298.7 24.9992ZM296.9 33.5992H299C301.3 33.5992 303.5 33.9992 302.9 36.8992C302.4 39.3992 299.7 39.8992 297.6 39.8992H295.5L296.9 33.5992ZM270.2 35.3992C268.9 41.1992 271.8 43.5992 277.6 43.5992C283.4 43.5992 287.3 41.1992 288.6 35.3992L291.6 21.5992H287L284.3 34.0992C283.5 37.7992 281.8 40.1992 278.3 40.1992C274.9 40.1992 274.1 37.7992 274.9 34.0992L277.6 21.5992H273.1L270.2 35.3992ZM251.1 32.3992C251.9 28.5992 254.6 24.6992 259.1 24.6992C263.6 24.6992 264.6 28.5992 263.7 32.3992C262.9 36.2992 260.3 40.1992 255.7 40.1992C251.1 40.1992 250.3 36.2992 251.1 32.3992ZM246.4 32.3992C245 38.9992 247.8 43.5992 255 43.5992C262.1 43.5992 267 38.8992 268.5 32.3992C269.9 25.8992 266.9 21.2992 259.9 21.2992C252.7 21.2992 247.9 25.6992 246.4 32.3992ZM234.6 43.1992H239.1L243.1 24.9992H249.5L250.2 21.5992H232.8L232.1 24.9992H238.5L234.6 43.1992ZM212.8 31.8992C215.5 30.4992 217.7 29.0992 218.4 26.1992C219.2 22.6992 216.1 21.2992 213 21.2992C209.8 21.2992 205.8 22.8992 205.1 26.1992C204.6 28.6992 205.7 29.7992 207.1 31.3992C203.2 32.8992 201.6 34.6992 201.1 37.2992C200.2 41.3992 203.3 43.5992 207.8 43.5992C210 43.5992 212.5 42.8992 214.4 41.2992L215.5 43.1992H221L217.9 38.8992C220.2 36.7992 221.6 34.2992 222.4 31.4992H218.5C218.1 33.1992 217.4 34.9992 216.1 36.1992L212.8 31.8992ZM210.8 29.5992C210.1 28.7992 209.1 27.6992 209.3 26.4992C209.6 24.8992 211.1 24.1992 212.4 24.1992C213.7 24.1992 214.7 24.8992 214.4 26.3992C214.2 27.7992 212.1 29.0992 210.8 29.5992ZM212.8 39.0992C211.6 39.9992 210.1 40.3992 208.6 40.3992C206.5 40.3992 205.1 39.0992 205.5 37.1992C205.9 35.4992 207.3 34.4992 209 33.6992L212.8 39.0992ZM168.7 43.1992H173L176.5 26.9992H176.6L181.7 43.1992H187.2L191.9 21.5992H187.6L184.1 37.7992H184L179 21.5992H173.5L168.7 43.1992ZM152 43.1992H165.3L166 39.7992H157.2L158.5 33.6992H166.5L167.2 30.2992H159.2L160.4 24.9992H169.2L169.9 21.5992H156.6L152 43.1992ZM152.8 21.9992C151.3 21.4992 149.5 21.1992 147.6 21.1992C143.6 21.1992 139.4 22.9992 138.3 27.7992C136.7 34.9992 147 33.2992 146.1 37.3992C145.7 39.3992 143.2 40.1992 141.5 40.1992C139.7 40.1992 138.1 39.6992 136.7 38.8992L135.4 42.7992C137.5 43.2992 138.5 43.5992 141 43.5992C145.5 43.5992 149.8 41.7992 150.9 37.0992C152.5 29.8992 142.3 31.3992 143.1 27.6992C143.6 25.2992 145.8 24.6992 147.3 24.6992C148.9 24.6992 150.4 24.9992 151.7 25.5992L152.8 21.9992ZM117.5 43.1992H122L123.9 34.1992H125.4C127.3 34.1992 127.7 34.7992 128 36.3992L129.2 43.0992H134.2L132.4 34.5992C132.2 33.5992 131.7 32.4992 130.5 32.3992V32.2992C133.4 31.8992 135.7 29.7992 136.2 27.2992C137.5 21.2992 131.7 21.3992 126.9 21.3992H122L117.5 43.1992ZM126 24.9992H127.5C129.8 24.9992 132.2 25.1992 131.7 27.7992C131.1 30.4992 128.5 30.7992 126.3 30.7992H124.8L126 24.9992ZM94.6 43.1992H99.3L102.3 38.1992H111.4L112.3 43.1992H117.3L113.2 21.5992H108.1L94.6 43.1992ZM110.9 34.8992H104.3L109.5 25.9992H109.6L110.9 34.8992ZM81.1 43.1992H94.3L95 39.7992H86.3L90.3 21.5992H85.8L81.1 43.1992Z" fill="white"/>
</g>
<defs>
<clipPath id="clip0_1460_15">
<rect width="350.7" height="64.9" fill="white"/>
</clipPath>
</defs>
</svg>
